<?xml version="1.0" encoding="utf-8"?>
<!-- Generator: Adobe Illustrator 19.0.0, SVG Export Plug-In . SVG Version: 6.00 Build 0)  -->
<svg version="1.1" id="Capa_1" xmlns="http://www.w3.org/2000/svg" xmlns:xlink="http://www.w3.org/1999/xlink" x="0px" y="0px"
	 viewBox="0 0 300 300" style="enable-background:new 0 0 300 300;" xml:space="preserve">
<style type="text/css">
	.st0{fill:#2797D4;}
	.st1{fill:#FFFFFF;}
</style>
<g id="XMLID_1842_">
	<rect id="XMLID_1843_" class="st0" width="300" height="300"/>
	<g id="XMLID_1844_">
		<g id="XMLID_1845_">
			<g id="XMLID_1846_">
				<path id="XMLID_1847_" class="st0" d="M144.8,205c0,0.7,0,1.5,0,2.2c0,1.7,0.1,3.4-0.1,5.1c0,0.6,0.2,0.9,0.9,1
					c1.7,0.3,3.5,0.4,5.3,0.5c2.5,0.1,4.9,0,7.4-0.1c0.7,0,1.4-0.1,2.1-0.2c1-0.2,2-0.4,3.1-0.5c0.8-0.1,1.5-0.2,2.3-0.4
					c0.7-0.2,1.4-0.4,2.1-0.5c0.3,0,0.7-0.1,1-0.3c0.7-0.3,1.4-0.5,2.1-0.7c1-0.3,2-0.6,3-1.1c1-0.4,2.1-0.7,2.9-1.3
					c0.1-0.1,0.2-0.1,0.3-0.1c0.4-0.1,0.7-0.3,1.1-0.5c0.2-0.1,0.3-0.2,0.5-0.3c0.9-0.2,1.6-0.8,2.3-1.2c0.9-0.5,1.8-1.1,2.8-1.7
					c0.1-0.1,0.3-0.2,0.4-0.3c0.2-0.1,0.4-0.3,0.6-0.4c0.6-0.3,1.2-0.8,1.7-1.2c0.9-0.7,1.9-1.4,2.8-2.2c1.3-1.1,2.5-2.2,3.7-3.4
					c1.5-1.5,2.9-3.1,4.2-4.7c0.4-0.4,0.7-0.9,1.1-1.4c0.5-0.7,1-1.5,1.5-2.2c0.4-0.6,0.9-1.2,1.2-1.9c0.1-0.2,0.2-0.4,0.4-0.6
					c0.5-0.7,0.8-1.5,1.3-2.2c0,0,0-0.1,0.1-0.1c0.3-0.8,0.9-1.6,1.2-2.4c0-0.1,0.1-0.1,0.1-0.2c0.2-0.3,0.3-0.7,0.5-1
					c0.4-1,0.9-2,1.2-3c0,0,0-0.1,0-0.1c0.3-0.4,0.4-0.9,0.5-1.4c0.1-0.5,0.2-0.9,0.5-1.3c0.2-0.4,0.3-0.9,0.4-1.3
					c0.1-0.6,0.2-1.1,0.4-1.7c0.2-0.5,0.3-1,0.4-1.5c0.1-0.7,0.2-1.4,0.4-2.1c0.4-1.6,0.6-3.2,0.7-4.9c0.1-1.2,0.2-2.3,0.2-3.5
					c0.1-1.3,0.1-2.5,0-3.7c0-1.2-0.2-2.5-0.3-3.7c-0.1-1.3-0.1-2.6-0.4-3.9c-0.2-1-0.4-1.9-0.6-2.9c-0.1-0.6-0.2-1.1-0.4-1.6
					c-0.2-0.5-0.4-1-0.4-1.5c-0.1-0.6-0.3-1.2-0.6-1.8c-0.1-0.2-0.2-0.5-0.3-0.7c-0.2-0.7-0.3-1.3-0.7-1.9c-0.1-0.2-0.2-0.4-0.2-0.6
					c-0.2-1.1-1-2-1.2-3c0,0-0.1-0.1-0.1-0.1c-0.5-0.8-0.9-1.8-1.3-2.6c-0.4-0.8-0.9-1.4-1.2-2.2c0-0.1-0.2-0.2-0.2-0.3
					c-0.1-0.1-0.2-0.3-0.3-0.4c-0.3-0.7-0.8-1.4-1.3-2c-0.5-0.7-0.9-1.4-1.4-2c-0.4-0.5-0.8-1.1-1.2-1.6c-0.8-0.9-1.5-1.9-2.3-2.7
					c-0.7-0.7-1.4-1.5-2.1-2.2c-0.8-0.8-1.6-1.5-2.4-2.2c-0.9-0.8-1.8-1.5-2.7-2.2c-0.6-0.5-1.2-0.9-1.8-1.3
					c-0.6-0.4-1.2-0.9-1.8-1.2c-0.7-0.4-1.2-0.9-2-1.2c-0.1,0-0.2-0.1-0.3-0.2c-0.3-0.2-0.6-0.4-0.9-0.5c-0.2-0.1-0.4-0.1-0.5-0.3
					c-0.4-0.3-0.8-0.5-1.2-0.7c-0.2-0.1-0.3-0.1-0.5-0.2c-0.3-0.3-0.7-0.4-1.2-0.6c-0.3-0.1-0.6-0.3-0.9-0.4
					c-0.2-0.1-0.3-0.2-0.5-0.3c-1-0.3-1.9-0.9-3-1.2c-0.2-0.1-0.4-0.2-0.7-0.3c-0.3-0.1-0.6,0-0.7,0.4c0,0.2,0,0.4,0,0.7
					c0,0.4,0.1,0.7,0.1,1.1c0,4.9,0,9.7,0,14.6c0,0.5,0,1-0.1,1.5c-0.1,0.5,0.1,0.8,0.5,1.1c0.6,0.3,1.1,0.7,1.7,1.1
					c1,0.7,2.1,1.4,3.1,2.2c1,0.8,1.9,1.6,2.8,2.5c1.5,1.5,3,3.1,4.2,4.8c0.3,0.4,0.6,0.9,0.9,1.3c0.6,0.8,1.1,1.7,1.7,2.6
					c0.3,0.6,0.7,1.2,1,1.8c0,0.1,0.1,0.1,0.1,0.2c0.6,1,1,2.1,1.4,3.2c0.1,0.4,0.2,0.8,0.4,1.1c0.3,0.5,0.4,1,0.5,1.5
					c0.1,0.6,0.3,1.1,0.5,1.6c0.2,0.4,0.2,0.8,0.3,1.2c0.1,0.7,0.2,1.5,0.3,2.2c0.3,1.5,0.5,2.9,0.5,4.4c0,1.5,0,3.1-0.1,4.6
					c-0.1,1.8-0.6,3.6-0.8,5.3c-0.2,1.2-0.7,2.4-1,3.7c-0.6,1-0.6,2.2-1.3,3.1c-0.1,0.1-0.1,0.3-0.1,0.4c-0.3,1-0.9,1.8-1.3,2.8
					c0,0-0.1,0.1-0.1,0.1c-0.1,0.2-0.2,0.4-0.3,0.6c-0.3,0.7-0.9,1.3-1.2,2.1c0,0,0,0.1-0.1,0.1c-0.5,0.6-0.9,1.2-1.3,1.8
					c-0.7,1-1.5,1.8-2.2,2.7c-0.7,0.8-1.5,1.6-2.3,2.4c-0.8,0.7-1.6,1.5-2.5,2.2c-0.6,0.5-1.2,0.8-1.8,1.3c-0.5,0.4-1.1,0.8-1.6,1.1
					c-0.4,0.2-0.7,0.5-1.1,0.7c-0.7,0.4-1.4,0.7-2,1.1c-0.1,0-0.1,0-0.2,0.1c-1,0.4-1.9,0.9-2.9,1.2c-0.6,0.2-1.1,0.5-1.7,0.6
					c-0.2,0-0.5,0.1-0.7,0.2c-0.7,0.3-1.4,0.5-2.2,0.6c-0.8,0.1-1.5,0.4-2.3,0.6c-2.2,0.4-4.3,0.5-6.5,0.5c-2,0-4-0.2-6-0.4
					c-0.7-0.1-1.3-0.2-2-0.5c-0.2-0.1-0.4-0.1-0.5-0.2c-0.4,0-0.6,0.1-0.6,0.5c0,0.2,0,0.3,0,0.5c0.1,0.9,0,1.8,0,2.7
					C144.8,201,144.8,203,144.8,205 M135.5,200.7c0-2.4-0.1-5.3,0.1-8.3c0-0.4-0.1-0.7-0.4-0.9c-0.8-0.6-1.7-1-2.5-1.6
					c-0.6-0.4-1.3-0.9-1.9-1.4c-0.4-0.3-0.8-0.5-1.2-0.9c-0.8-0.7-1.5-1.4-2.3-2.1c-1.1-1-2-2.1-3-3.2c-0.4-0.4-0.7-0.8-1-1.3
					c-0.4-0.6-0.9-1.2-1.3-1.8c-0.5-0.7-0.8-1.4-1.3-2c-0.1-0.1-0.1-0.2-0.1-0.3c-0.3-0.8-0.9-1.5-1.2-2.3c0-0.1-0.1-0.1-0.1-0.2
					c-0.4-0.9-0.8-1.9-1.3-2.8c0-0.1,0-0.1,0-0.2c-0.1-0.4-0.2-0.7-0.4-1.1c-0.3-0.5-0.5-1.1-0.5-1.7c-0.1-0.4-0.2-0.9-0.4-1.3
					c-0.3-0.6-0.4-1.3-0.5-2c-0.1-0.4-0.1-0.8-0.2-1.2c-0.2-1.1-0.4-2.1-0.5-3.2c-0.1-1.7-0.1-3.3-0.1-5c0-0.8,0.1-1.7,0.2-2.5
					c0.2-0.9,0.3-1.7,0.4-2.6c0.1-1,0.3-1.9,0.7-2.8c0.1-0.3,0.2-0.6,0.2-0.9c0.1-0.5,0.2-1,0.5-1.5c0.2-0.4,0.3-0.8,0.4-1.2
					c0.1-0.4,0.2-0.7,0.4-1c0.2-0.3,0.3-0.7,0.5-1c0.3-0.9,0.9-1.6,1.2-2.5c0,0,0,0,0,0c0.5-0.7,0.8-1.5,1.3-2.2
					c0.5-0.7,1-1.4,1.4-2.1c0.3-0.4,0.5-0.8,0.8-1.1c0.4-0.5,0.9-1,1.3-1.5c1-1.1,2-2.2,3.1-3.2c0.8-0.7,1.6-1.4,2.4-2
					c0.6-0.5,1.3-1,1.9-1.4c0.5-0.3,1-0.6,1.5-0.9c0.1-0.1,0.3-0.2,0.2-0.4c-0.1-0.2-0.2-0.2-0.4-0.2c-0.2,0-0.5,0-0.7,0
					c-0.4,0.1-0.8,0.1-1.1,0.1c-0.7,0-1.4,0-2,0c-3.8,0-7.6,0-11.4,0c-2.2,0-4.5,0-6.7,0c-0.6,0-1.3,0-1.9-0.1
					c-0.7-0.1-1.3,0.2-1.6,0.8c-0.4,0.7-0.9,1.2-1.2,1.9c-0.1,0.2-0.2,0.3-0.3,0.4c-0.1,0.2-0.3,0.4-0.4,0.6
					c-0.1,0.3-0.3,0.6-0.5,0.8c-0.1,0.2-0.3,0.3-0.3,0.5c-0.3,0.8-0.8,1.4-1.1,2.2c0,0.1-0.1,0.2-0.2,0.3c-0.5,0.8-0.8,1.8-1.3,2.6
					c0,0,0,0,0,0c-0.2,0.5-0.3,1-0.6,1.5c-0.2,0.2-0.2,0.5-0.3,0.8c-0.1,0.4-0.2,0.8-0.5,1.2c-0.2,0.3-0.3,0.7-0.4,1.1
					c-0.1,0.6-0.3,1.2-0.6,1.8c-0.1,0.3-0.2,0.5-0.2,0.8c-0.1,0.8-0.3,1.6-0.6,2.4c-0.1,0.3-0.2,0.6-0.2,1c-0.2,0.9-0.2,1.9-0.5,2.8
					c-0.2,0.8-0.3,1.6-0.4,2.5c-0.1,1.6-0.2,3.2-0.3,4.8c-0.1,1.3-0.1,2.6-0.1,3.9c0.1,1.4,0.2,2.9,0.3,4.3c0.1,1.4,0.2,2.8,0.6,4.1
					c0.1,0.4,0.2,0.9,0.3,1.4c0.1,1,0.3,2,0.7,2.9c0.1,0.3,0.2,0.7,0.3,1.1c0.1,0.5,0.2,1,0.4,1.5c0.2,0.5,0.4,1,0.5,1.5
					c0.3,1.1,0.8,2.2,1.2,3.3c0,0,0,0,0,0c0.5,0.9,0.8,1.9,1.3,2.9c0.4,0.8,0.9,1.6,1.2,2.4c0,0,0,0.1,0.1,0.1
					c0.5,0.7,0.8,1.6,1.4,2.3c0,0,0,0.1,0.1,0.1c0.3,0.7,0.8,1.3,1.2,1.9c0.4,0.6,0.8,1.2,1.3,1.8c0.4,0.6,0.9,1.2,1.3,1.7
					c1.1,1.3,2.1,2.6,3.3,3.8c1.1,1.2,2.3,2.4,3.6,3.4c0.9,0.7,1.7,1.5,2.6,2.2c0.5,0.4,1.1,0.8,1.6,1.2c0.6,0.4,1.2,0.8,1.8,1.3
					c0.7,0.5,1.4,0.9,2.1,1.3c0.3,0.2,0.6,0.3,0.8,0.5c0.2,0.2,0.4,0.3,0.7,0.4c0.3,0.1,0.5,0.3,0.8,0.4c0.8,0.4,1.6,0.8,2.4,1.3
					c0,0,0.1,0,0.1,0c1,0.4,1.9,0.9,3,1.2c0,0,0.1,0.1,0.1,0.1c0.6,0.4,1.4,0.5,2,0.8c0.3,0.2,0.5,0,0.6-0.4c0-0.2,0-0.5,0-0.7
					c0-0.5,0-1,0-1.6C135.5,205.9,135.5,203.6,135.5,200.7 M126.1,104.9c0,0.6,0,1.3,0,1.9c0,2,0,4.1,0,6.1c0,0.8,0.3,1.1,1.1,0.9
					c0.3-0.1,0.6-0.1,0.9-0.1c4.6,0,9.1,0,13.7,0c0.6,0,1.2,0,1.9,0c0.7,0,1.1,0.4,1.1,1.1c0,0.4,0,0.8,0,1.2c0,10.9,0,21.7,0,32.6
					c0,3.7,0,7.4,0,11.1c0,0.5-0.1,1-0.1,1.5c0,0.7,0.3,0.9,0.9,0.9c0.4,0,0.9-0.1,1.3-0.1c4.5,0,8.9,0,13.4,0
					c0.4,0,0.9,0.1,1.3,0.1c0.5,0,0.7-0.2,0.8-0.7c0-0.1,0-0.2,0-0.3c-0.1-0.8-0.1-1.6-0.1-2.4c0-5.1,0-10.1,0-15.2
					c0-5.1,0-10.3,0-15.4c0-3.8,0-7.6,0-11.3c0-5.6,0-11.2,0-16.8c0-1-0.1-2,0.1-3c0-0.1,0-0.2,0-0.4c-0.1-0.5-0.4-0.7-0.8-0.6
					c-0.6,0.1-1.2,0.1-1.8,0.1c-10.5,0-21,0-31.5,0c-0.4,0-0.8,0-1.2-0.1c-0.6-0.1-1,0.2-1,0.9c0,0.4,0,0.8,0,1.2
					C126.1,100.4,126.1,102.7,126.1,104.9"/>
				<path id="XMLID_1851_" class="st1" d="M144.8,205c0-2,0-4,0-6c0-0.9,0.1-1.8,0-2.7c0-0.2,0-0.3,0-0.5c0-0.4,0.2-0.5,0.6-0.5
					c0.2,0,0.4,0.1,0.5,0.2c0.6,0.3,1.3,0.4,2,0.5c2,0.2,4,0.4,6,0.4c2.2-0.1,4.4-0.2,6.5-0.5c0.8-0.1,1.5-0.5,2.3-0.6
					c0.8-0.1,1.5-0.3,2.2-0.6c0.2-0.1,0.5-0.2,0.7-0.2c0.6-0.1,1.1-0.4,1.7-0.6c1-0.4,1.9-0.8,2.9-1.2c0.1,0,0.1,0,0.2-0.1
					c0.7-0.4,1.4-0.7,2-1.1c0.4-0.2,0.7-0.5,1.1-0.7c0.6-0.3,1.1-0.7,1.6-1.1c0.6-0.5,1.2-0.9,1.8-1.3c0.9-0.7,1.7-1.4,2.5-2.2
					c0.8-0.7,1.6-1.5,2.3-2.4c0.8-0.9,1.6-1.8,2.2-2.7c0.4-0.6,0.8-1.3,1.3-1.8c0,0,0,0,0.1-0.1c0.3-0.7,0.9-1.3,1.2-2.1
					c0.1-0.2,0.2-0.4,0.3-0.6c0,0,0.1-0.1,0.1-0.1c0.4-0.9,1-1.8,1.3-2.8c0-0.1,0.1-0.3,0.1-0.4c0.7-0.9,0.7-2.1,1.3-3.1
					c0.3-1.2,0.8-2.4,1-3.7c0.3-1.8,0.7-3.5,0.8-5.3c0.1-1.5,0.1-3,0.1-4.6c0-1.5-0.2-3-0.5-4.4c-0.2-0.7-0.2-1.4-0.3-2.2
					c-0.1-0.4-0.1-0.8-0.3-1.2c-0.2-0.5-0.4-1.1-0.5-1.6c-0.1-0.5-0.3-1-0.5-1.5c-0.2-0.4-0.3-0.8-0.4-1.1c-0.4-1.1-0.8-2.2-1.4-3.2
					c0-0.1-0.1-0.1-0.1-0.2c-0.2-0.7-0.6-1.2-1-1.8c-0.5-0.9-1-1.8-1.7-2.6c-0.3-0.4-0.6-0.9-0.9-1.3c-1.3-1.7-2.7-3.3-4.2-4.8
					c-0.9-0.9-1.9-1.7-2.8-2.5c-1-0.8-2-1.5-3.1-2.2c-0.5-0.4-1.1-0.7-1.7-1.1c-0.4-0.2-0.6-0.6-0.5-1.1c0.1-0.5,0.1-1,0.1-1.5
					c0-4.9,0-9.7,0-14.6c0-0.4,0-0.7-0.1-1.1c0-0.2,0-0.5,0-0.7c0.1-0.4,0.3-0.5,0.7-0.4c0.2,0.1,0.4,0.2,0.7,0.3
					c1,0.3,1.9,0.9,3,1.2c0.2,0,0.4,0.1,0.5,0.3c0.3,0.2,0.6,0.3,0.9,0.4c0.4,0.1,0.8,0.3,1.2,0.6c0.1,0.1,0.3,0.2,0.5,0.2
					c0.4,0.2,0.9,0.4,1.2,0.7c0.1,0.1,0.3,0.2,0.5,0.3c0.3,0.1,0.6,0.3,0.9,0.5c0.1,0.1,0.2,0.1,0.3,0.2c0.7,0.3,1.3,0.8,2,1.2
					c0.6,0.4,1.2,0.8,1.8,1.2c0.6,0.4,1.2,0.9,1.8,1.3c0.9,0.7,1.8,1.5,2.7,2.2c0.8,0.7,1.6,1.5,2.4,2.2c0.7,0.7,1.4,1.5,2.1,2.2
					c0.8,0.9,1.5,1.8,2.3,2.7c0.4,0.5,0.8,1.1,1.2,1.6c0.5,0.6,0.9,1.3,1.4,2c0.4,0.7,1,1.3,1.3,2c0.1,0.2,0.2,0.3,0.3,0.4
					c0.1,0.1,0.2,0.2,0.2,0.3c0.3,0.8,0.8,1.5,1.2,2.2c0.4,0.9,0.8,1.8,1.3,2.6c0,0,0.1,0.1,0.1,0.1c0.3,1.1,1,1.9,1.2,3
					c0,0.2,0.1,0.4,0.2,0.6c0.3,0.6,0.5,1.2,0.7,1.9c0.1,0.3,0.1,0.5,0.3,0.7c0.3,0.6,0.5,1.2,0.6,1.8c0.1,0.5,0.2,1,0.4,1.5
					c0.2,0.5,0.3,1.1,0.4,1.6c0.1,1,0.3,1.9,0.6,2.9c0.3,1.3,0.3,2.6,0.4,3.9c0.1,1.2,0.2,2.5,0.3,3.7c0,1.2,0,2.5,0,3.7
					c-0.1,1.2-0.2,2.3-0.2,3.5c-0.1,1.6-0.2,3.3-0.7,4.9c-0.2,0.7-0.3,1.4-0.4,2.1c-0.1,0.5-0.2,1-0.4,1.5c-0.2,0.5-0.4,1.1-0.4,1.7
					c-0.1,0.5-0.2,0.9-0.4,1.3c-0.2,0.4-0.3,0.9-0.5,1.3c-0.1,0.5-0.2,0.9-0.5,1.4c0,0,0,0.1,0,0.1c-0.3,1.1-0.8,2-1.2,3
					c-0.1,0.4-0.3,0.7-0.5,1c0,0.1-0.1,0.1-0.1,0.2c-0.3,0.9-0.8,1.6-1.2,2.4c0,0,0,0.1-0.1,0.1c-0.5,0.7-0.8,1.5-1.3,2.2
					c-0.1,0.2-0.3,0.4-0.4,0.6c-0.3,0.7-0.8,1.3-1.2,1.9c-0.5,0.7-1,1.5-1.5,2.2c-0.3,0.5-0.7,0.9-1.1,1.4c-1.3,1.6-2.7,3.3-4.2,4.7
					c-1.2,1.2-2.4,2.3-3.7,3.4c-0.9,0.8-1.8,1.5-2.8,2.2c-0.6,0.4-1.1,0.8-1.7,1.2c-0.2,0.1-0.4,0.3-0.6,0.4
					c-0.1,0.1-0.3,0.2-0.4,0.3c-0.9,0.5-1.8,1.2-2.8,1.7c-0.8,0.4-1.5,1-2.3,1.2c-0.2,0.1-0.3,0.2-0.5,0.3c-0.3,0.2-0.7,0.4-1.1,0.5
					c-0.1,0-0.2,0-0.3,0.1c-0.9,0.6-2,0.9-2.9,1.3c-1,0.4-2,0.8-3,1.1c-0.7,0.2-1.4,0.4-2.1,0.7c-0.3,0.2-0.7,0.2-1,0.3
					c-0.7,0.1-1.4,0.3-2.1,0.5c-0.7,0.3-1.5,0.4-2.3,0.4c-1,0.1-2.1,0.3-3.1,0.5c-0.7,0.1-1.4,0.2-2.1,0.2c-2.5,0.1-4.9,0.2-7.4,0.1
					c-1.8-0.1-3.5-0.2-5.3-0.5c-0.7-0.1-0.9-0.4-0.9-1c0.1-1.7,0-3.4,0.1-5.1C144.8,206.5,144.8,205.8,144.8,205"/>
				<path id="XMLID_1852_" class="st1" d="M135.5,200.7c0,2.9,0,5.1,0,7.4c0,0.5,0,1,0,1.6c0,0.2,0,0.5,0,0.7
					c-0.1,0.4-0.3,0.5-0.6,0.4c-0.6-0.4-1.4-0.5-2-0.8c0,0-0.1-0.1-0.1-0.1c-1-0.3-2-0.8-3-1.2c0,0-0.1,0-0.1,0
					c-0.8-0.4-1.6-0.8-2.4-1.3c-0.3-0.1-0.5-0.3-0.8-0.4c-0.2-0.1-0.5-0.2-0.7-0.4c-0.3-0.2-0.6-0.3-0.8-0.5
					c-0.7-0.4-1.4-0.8-2.1-1.3c-0.6-0.4-1.2-0.8-1.8-1.3c-0.5-0.4-1.1-0.8-1.6-1.2c-0.9-0.7-1.7-1.5-2.6-2.2
					c-1.3-1.1-2.5-2.2-3.6-3.4c-1.2-1.2-2.2-2.5-3.3-3.8c-0.5-0.6-0.9-1.1-1.3-1.7c-0.4-0.6-0.8-1.2-1.3-1.8
					c-0.4-0.6-0.9-1.2-1.2-1.9c0,0,0-0.1-0.1-0.1c-0.6-0.7-0.8-1.6-1.4-2.3c0,0,0-0.1-0.1-0.1c-0.3-0.8-0.8-1.6-1.2-2.4
					c-0.5-1-0.8-1.9-1.3-2.9c0,0,0,0,0,0c-0.4-1.1-0.9-2.1-1.2-3.3c-0.1-0.5-0.3-1-0.5-1.5c-0.2-0.5-0.3-1-0.4-1.5
					c-0.1-0.4-0.1-0.7-0.3-1.1c-0.4-0.9-0.5-1.9-0.7-2.9c-0.1-0.5-0.1-0.9-0.3-1.4c-0.4-1.3-0.5-2.7-0.6-4.1
					c-0.1-1.4-0.2-2.9-0.3-4.3c0-1.3,0-2.6,0.1-3.9c0.1-1.6,0.2-3.2,0.3-4.8c0.1-0.8,0.2-1.7,0.4-2.5c0.3-0.9,0.3-1.8,0.5-2.8
					c0.1-0.3,0.1-0.7,0.2-1c0.3-0.8,0.5-1.5,0.6-2.4c0-0.3,0.1-0.5,0.2-0.8c0.3-0.6,0.5-1.2,0.6-1.8c0.1-0.4,0.2-0.7,0.4-1.1
					c0.2-0.4,0.4-0.8,0.5-1.2c0.1-0.3,0.1-0.6,0.3-0.8c0.3-0.5,0.5-1,0.6-1.5c0,0,0,0,0,0c0.5-0.8,0.8-1.8,1.3-2.6
					c0.1-0.1,0.1-0.2,0.2-0.3c0.3-0.8,0.8-1.4,1.1-2.2c0.1-0.2,0.2-0.4,0.3-0.5c0.2-0.3,0.4-0.5,0.5-0.8c0.1-0.2,0.2-0.4,0.4-0.6
					c0.1-0.1,0.2-0.3,0.3-0.4c0.3-0.7,0.9-1.2,1.2-1.9c0.3-0.6,0.9-0.9,1.6-0.8c0.6,0.1,1.2,0.1,1.9,0.1c2.2,0,4.5,0,6.7,0
					c3.8,0,7.6,0,11.4,0c0.7,0,1.4,0,2,0c0.4,0,0.8,0,1.1-0.1c0.2,0,0.4,0,0.7,0c0.2,0,0.3,0,0.4,0.2c0.1,0.2-0.1,0.3-0.2,0.4
					c-0.5,0.3-1,0.6-1.5,0.9c-0.7,0.4-1.3,0.9-1.9,1.4c-0.8,0.7-1.6,1.3-2.4,2c-1.1,1-2.1,2.1-3.1,3.2c-0.4,0.5-0.8,1-1.3,1.5
					c-0.3,0.3-0.5,0.7-0.8,1.1c-0.5,0.7-1,1.4-1.4,2.1c-0.5,0.7-0.8,1.5-1.3,2.2c0,0,0,0,0,0c-0.3,0.9-0.9,1.6-1.2,2.5
					c-0.1,0.4-0.3,0.7-0.5,1c-0.2,0.3-0.3,0.7-0.4,1c-0.1,0.4-0.2,0.8-0.4,1.2c-0.3,0.5-0.4,1-0.5,1.5c-0.1,0.3-0.1,0.6-0.2,0.9
					c-0.4,0.9-0.6,1.9-0.7,2.8c-0.1,0.9-0.3,1.7-0.4,2.6c-0.1,0.8-0.2,1.6-0.2,2.5c0,1.7-0.1,3.3,0.1,5c0.1,1.1,0.3,2.1,0.5,3.2
					c0.1,0.4,0.1,0.8,0.2,1.2c0.1,0.7,0.2,1.3,0.5,2c0.2,0.4,0.3,0.9,0.4,1.3c0.1,0.6,0.2,1.2,0.5,1.7c0.2,0.3,0.3,0.7,0.4,1.1
					c0,0.1,0,0.1,0,0.2c0.4,0.9,0.8,1.9,1.3,2.8c0,0.1,0.1,0.1,0.1,0.2c0.3,0.8,0.8,1.5,1.2,2.3c0,0.1,0.1,0.2,0.1,0.3
					c0.5,0.6,0.8,1.4,1.3,2c0.4,0.6,0.9,1.2,1.3,1.8c0.3,0.4,0.6,0.9,1,1.3c1,1.1,2,2.2,3,3.2c0.7,0.7,1.5,1.4,2.3,2.1
					c0.4,0.3,0.8,0.6,1.2,0.9c0.6,0.4,1.3,0.9,1.9,1.4c0.8,0.5,1.7,1,2.5,1.6c0.3,0.2,0.5,0.5,0.4,0.9
					C135.4,195.4,135.5,198.3,135.5,200.7"/>
				<path id="XMLID_1853_" class="st1" d="M126.1,104.9c0-2.3,0-4.5,0-6.8c0-0.4,0-0.8,0-1.2c0-0.6,0.4-1,1-0.9
					c0.4,0.1,0.8,0.1,1.2,0.1c10.5,0,21,0,31.5,0c0.6,0,1.2,0,1.8-0.1c0.5-0.1,0.7,0.2,0.8,0.6c0,0.1,0,0.2,0,0.4
					c-0.1,1-0.1,2-0.1,3c0,5.6,0,11.2,0,16.8c0,3.8,0,7.6,0,11.3c0,5.1,0,10.3,0,15.4c0,5.1,0,10.1,0,15.2c0,0.8,0,1.6,0.1,2.4
					c0,0.1,0,0.2,0,0.3c-0.1,0.5-0.3,0.7-0.8,0.7c-0.5,0-0.9-0.1-1.3-0.1c-4.5,0-8.9,0-13.4,0c-0.4,0-0.9,0.1-1.3,0.1
					c-0.7,0-0.9-0.2-0.9-0.9c0-0.5,0.1-1,0.1-1.5c0-3.7,0-7.4,0-11.1c0-10.9,0-21.7,0-32.6c0-0.4,0-0.8,0-1.2
					c-0.1-0.7-0.4-1.1-1.1-1.1c-0.6,0-1.2,0-1.9,0c-4.6,0-9.1,0-13.7,0c-0.3,0-0.6,0-0.9,0.1c-0.8,0.1-1.1-0.2-1.1-0.9
					c0-2,0-4.1,0-6.1C126.1,106.2,126.1,105.6,126.1,104.9"/>
			</g>
		</g>
	</g>
</g>
</svg>
